[img]http://img848.imageshack.us/img848/7205/potser.jpg[/img]
[code]
The Eagle 2011 R5 READNFO XViD - IMAGiNE
Ripper ...........:IMAGiNE                                         IMDB Rating.......:6.6/10                             
Video Codec.......:XVID                                            Release Date......:13/04/11
Audio Codec.......:MP3                                             Theatre Date......:11/02/11
Audio Bitrate.....:128                                             Runtime...........:1h 49mn
Subtitles.........:NIL                                             Language..........:ENGLISH
Resolution........:720  x 304                                      IMDb URL.......... http://www.imdb.com/title/tt1034389/
DETAILS:

Video
ID                               : 0
Format                           : MPEG-4 Visual
Format profile                   : Advanced Simple@L5
Format settings, BVOP            : Yes
Format settings, QPel            : No
Format settings, GMC             : No warppoints
Format settings, Matrix          : Default (MPEG)
Muxing mode                      : Packed bitstream
Codec ID                         : XVID
Codec ID/Hint                    : XviD
Duration                         : 1h 49mn
Bit rate                         : 1 666 Kbps
Width                            : 720 pixels
Height                           : 304 pixels
Display aspect ratio             : 2.35:1
Frame rate                       : 25000 fps
Color space                      : YUV
Chroma subsampling               : 4:2:
Bit depth                        : 8 bits
Scan type                        : Progressive
Compression mode                 : Lossy
Bits/(Pixel*Frame)               : 0.305
Stream size                      : 1.27 GiB (92%)
Writing library                  : XviD 63


Audio
ID                               : 1
Format                           : MPEG Audio
Format version                   : Version 1
Format profile                   : Layer 3
Mode                             : Joint stereo
Mode extension                   : MS Stereo
Codec ID                         : 55
Codec ID/Hint                    : MP3
Duration                         : 1h 49mn
Bit rate mode                    : Constant
Bit rate                         : 128 Kbps
Channel(s)                       : 2 channels
Sampling rate                    : 44.1 KHz
Compression mode                 : Lossy
Stream size                      : 100 MiB (7%)
Alignment                        : Split accross interleaves
Interleave, duration             : 40 ms (1.00 video frame)
Writing library                  : LAME3.98r
Encoding settings                : -m j -V 4 -q 2 -lowpass 17 -b 128

SOURCES:
VIDEO: DVD9 ELEKTRI4KA ... Thanks 
AUDIO: Thanks Matey 

NOTES:
IMAGiNE bringing you another release.......... The Eagle R5 2011....

Here we are with our encode of this movie for you all.. Now for the video we just made a script 
containing, towned down the yellow adjusted rgb and black levels and saturation along with a sharpen filter 
With the audio it was just a case of syncing the audio to our encode...
Fri.... hardcode subs for all the non english parts and will this work on ps3 who knows 
Enjoy
[/code]
Screens:
[img]http://img859.imageshack.us/img859/5701/54079182.jpg[/img]
[img]http://img251.imageshack.us/img251/9524/23970329.jpg[/img]
[img]http://img718.imageshack.us/img718/3263/65927978.jpg[/img]